#!OML:ASF I:\Actors\actors\Patient Classification 2\Patient 1\Session 1\actor1.ASF
:FULLY-SPECIFIED
:DEGREES
216
root -0.809267 18.7305 5.51418 2.41974 -2.47089 -3.14269
lowerback 4.82502 0.716971 0.268769
upperback -1.27244 1.00155 0.711768
thorax -4.02719 0.500015 0.501042
lowerneck -11.6864 -1.89029 1.27018
upperneck 22.0776 -3.47931 2.39306
head 8.85278 -1.28156 0.213716
rclavicle 1.26787e-014 -9.74045e-015
rhumerus -49.2158 -3.17112 -84.0185
rradius 43.8726
rwrist 7.71679
rhand 1.57287 -39.238
rfingers 7.12502
rthumb 27.096 -67.3135
lclavicle 1.26787e-014 -9.74045e-015
lhumerus -43.4624 4.26339 86.7916
lradius 41.1983
lwrist -8.65678
lhand -2.57999 -24.7323
lfingers 7.12502
lthumb 23.117 3.90084
rfemur 4.70516 3.24951 17.4239
rtibia -1.43125e-014
rfoot -17.0817 -12.0655
rtoes -7.61836
lfemur -6.98363 -6.56672 -10.8386
ltibia 22.5721
lfoot -22.6334 12.9727
ltoes -55.2836
217
root -0.808887 18.7297 5.51434 2.35428 -2.45322 -3.15795
lowerback 4.80009 0.745894 0.310145
upperback -1.24327 1.04199 0.703457
thorax -3.98227 0.519019 0.466468
lowerneck -11.7847 -1.89749 1.27197
upperneck 22.0119 -3.49023 2.39689
head 8.84865 -1.28617 0.212644
rclavicle 2.14936e-015 2.5842e-015
rhumerus -49.1286 -3.17604 -84.0511
rradius 43.9658
rwrist 7.68685
rhand 1.67396 -39.286
rfingers 7.12502
rthumb 27.1927 -67.3464
lclavicle 2.14936e-015 2.5842e-015
lhumerus -43.3516 4.0427 86.8765
lradius 41.2219
lwrist -8.57204
lhand -2.83392 -24.6905
lfingers 7.12502
lthumb 22.8733 3.97296
rfemur 4.77966 3.2355 17.4429
rtibia -1.59028e-015
rfoot -17.0767 -12.0658
rtoes -7.48075
lfemur -6.91499 -6.49885 -10.8236
ltibia 22.5546
lfoot -22.5828 12.925
ltoes -55.3205
218
root -0.808609 18.7289 5.5136 2.29761 -2.44804 -3.191
lowerback 4.76319 0.746382 0.329954
upperback -1.20807 1.04348 0.708783
thorax -3.9247 0.519397 0.461479
lowerneck -11.8914 -1.84208 1.30388
upperneck 22.0348 -3.42538 2.40631
head 8.87565 -1.25048 0.21645
rclavicle -2.30466e-014 1.51076e-014
rhumerus -49.0424 -3.03528 -84.1618
rradius 44.1004
rwrist 7.56081
rhand 1.71666 -39.456
rfingers 7.12502
rthumb 27.2336 -67.5099
lclavicle -2.30466e-014 1.51076e-014
lhumerus -43.2714 3.87292 86.9064
lradius 41.3134
lwrist -8.40437
lhand -3.00156 -24.7282
lfingers 7.12502
lthumb 22.7125 3.95508
rfemur 4.8408 3.23419 17.4814
rtibia 4.77083e-015
rfoot -17.0773 -12.0612
rtoes -7.42235
lfemur -6.87195 -6.44672 -10.7847
ltibia 22.5684
lfoot -22.5472 12.8516
ltoes -55.3208
219
root -0.807887 18.7281 5.51269 2.23497 -2.44661 -3.19442
lowerback 4.74062 0.742049 0.309369
upperback -1.16667 1.03636 0.722101
thorax -3.86965 0.516544 0.487923
lowerneck -11.9485 -1.77901 1.34225
upperneck 22.0131 -3.3324 2.34801
head 8.87636 -1.20956 0.200089
rclavicle -1.12748e-014 -1.19271e-015
rhumerus -48.973 -2.83115 -84.2549
rradius 44.2565
rwrist 7.39715
rhand 1.74162 -39.599
rfingers 7.12502
rthumb 27.2575 -67.6492
lclavicle -1.12748e-014 -1.19271e-015
lhumerus -43.1836 3.75977 86.9299
lradius 41.4014
lwrist -8.22601
lhand -3.0769 -24.8283
lfingers 7.12502
lthumb 22.6402 3.86387
rfemur 4.90743 3.23568 17.4872
rtibia 4.77083e-015
rfoot -17.0582 -12.0795
rtoes -7.63114
lfemur -6.83406 -6.40557 -10.7836
ltibia 22.6049
lfoot -22.516 12.7968
ltoes -55.3566
220
root -0.806856 18.7273 5.51252 2.17072 -2.44821 -3.20671
lowerback 4.7224 0.750534 0.307131
upperback -1.12814 1.04779 0.742379
thorax -3.81999 0.522548 0.509685
lowerneck -11.9289 -1.77358 1.38607
upperneck 21.8769 -3.30232 2.23616
head 8.82267 -1.20625 0.158886
rclavicle -2.49723e-014 -8.54774e-015
rhumerus -48.9791 -2.59888 -84.3287
rradius 44.4987
rwrist 7.1387
rhand 1.74255 -39.6343
rfingers 7.12502
rthumb 27.2583 -67.6844
lclavicle -2.49723e-014 -8.54774e-015
lhumerus -43.1068 3.64668 86.986
lradius 41.4607
lwrist -8.0025
lhand -3.50468 -24.9867
lfingers 7.12502
lthumb 22.2295 3.75491
rfemur 4.97785 3.24061 17.5022
rtibia 1.11319e-014
rfoot -17.0437 -12.0901
rtoes -7.75606
lfemur -6.78563 -6.33492 -10.7744
ltibia 22.6409
lfoot -22.4825 12.7462
ltoes -55.3898
221
root -0.805672 18.7262 5.51252 2.11551 -2.46396 -3.24403
lowerback 4.69547 0.761101 0.330941
upperback -1.09592 1.06378 0.768371
thorax -3.77163 0.53029 0.522455
lowerneck -11.9195 -1.76899 1.4106
upperneck 21.8028 -3.28367 2.17411
head 8.79372 -1.20338 0.136231
rclavicle -1.84124e-014 6.36111e-015
rhumerus -48.9854 -2.40895 -84.376
rradius 44.6751
rwrist 6.94109
rhand 1.72987 -39.4547
rfingers 7.12502
rthumb 27.2462 -67.5067
lclavicle -1.84124e-014 6.36111e-015
lhumerus -43.036 3.66275 86.9789
lradius 41.5052
lwrist -7.98231
lhand -3.33272 -25.1468
lfingers 7.12502
lthumb 22.3946 3.57507
rfemur 5.03969 3.26018 17.5424
rtibia -1.11319e-014
rfoot -17.0512 -12.0736
rtoes -7.6479
lfemur -6.73152 -6.37117 -10.7481
ltibia 22.6719
lfoot -22.5233 12.7523
ltoes -55.3424
222
root -0.804499 18.7247 5.51285 2.05165 -2.5086 -3.30497
lowerback 4.67833 0.783806 0.382149
upperback -1.06469 1.09751 0.790011
thorax -3.72937 0.546189 0.513857
lowerneck -11.9743 -1.73692 1.48342
upperneck 21.8729 -3.2394 2.09218
head 8.82498 -1.18336 0.100463
rclavicle 1.07779e-014 -2.18663e-015
rhumerus -48.9906 -2.29436 -84.4009
rradius 44.7671
rwrist 6.86758
rhand 1.72242 -39.3104
rfingers 7.12502
rthumb 27.2391 -67.3635
lclavicle 1.07779e-014 -2.18663e-015
lhumerus -42.9419 3.77684 86.896
lradius 41.5375
lwrist -8.20007
lhand -2.6134 -25.1658
lfingers 7.12502
lthumb 23.085 3.47132
rfemur 5.10833 3.30972 17.6079
rtibia -1.27222e-014
rfoot -17.0652 -12.0445
rtoes -7.4537
lfemur -6.65636 -6.41835 -10.7003
ltibia 22.6977
lfoot -22.6007 12.7648
ltoes -55.2596
223
root -0.803376 18.723 5.5139 1.9865 -2.55419 -3.34259
lowerback 4.66739 0.809787 0.412905
upperback -1.04093 1.1339 0.796091
thorax -3.6984 0.5637 0.500369
lowerneck -12.013 -1.72487 1.532
upperneck 21.9559 -3.22406 2.0368
head 8.85877 -1.17608 0.0746175
rclavicle -1.86361e-015 -1.03368e-014
rhumerus -49.0003 -2.24376 -84.4121
rradius 44.8457
rwrist 6.79033
rhand 1.60923 -39.3709
rfingers 7.12502
rthumb 27.1308 -67.441
lclavicle -1.86361e-015 -1.03368e-014
lhumerus -42.8581 3.8319 86.8304
lradius 41.5702
lwrist -8.3328
lhand -2.36373 -25.1877
lfingers 7.12502
lthumb 23.3245 3.41931
rfemur 5.17547 3.35931 17.6488
rtibia 3.18055e-015
rfoot -17.0954 -12.018
rtoes -7.25869
lfemur -6.57684 -6.3829 -10.6728
ltibia 22.714
lfoot -22.6452 12.7742
ltoes -55.2222
224
root -0.802488 18.7223 5.51449 1.95622 -2.57488 -3.32733
lowerback 4.64426 0.822841 0.391351
upperback -1.02594 1.14915 0.782076
thorax -3.67007 0.571633 0.497288
lowerneck -12.0455 -1.73063 1.5033
upperneck 22.014 -3.23665 2.07037
head 8.88593 -1.17945 0.0888347
rclavicle -7.70291e-016 -5.36719e-015
rhumerus -48.9945 -2.23157 -84.4233
rradius 44.9197
rwrist 6.72793
rhand 1.41732 -39.4431
rfingers 7.12502
rthumb 26.9472 -67.5417
lclavicle -7.70291e-016 -5.36719e-015
lhumerus -42.772 3.89637 86.7682
lradius 41.5799
lwrist -8.33036
lhand -2.43941 -25.2274
lfingers 7.12502
lthumb 23.2519 3.38873
rfemur 5.20534 3.38074 17.6314
rtibia -1.59028e-015
rfoot -17.1131 -12.0182
rtoes -7.18911
lfemur -6.54071 -6.36548 -10.7009
ltibia 22.7234
lfoot -22.6678 12.7834
ltoes -55.167
225
root -0.801978 18.7218 5.51392 1.92243 -2.59259 -3.31608
lowerback 4.65634 0.843852 0.3889
upperback -1.01512 1.17592 0.751094
thorax -3.66525 0.584646 0.464567
lowerneck -12.0823 -1.7389 1.5104
upperneck 22.0702 -3.25914 2.09792
head 8.91271 -1.18509 0.0938951
rclavicle -2.31025e-014 8.15017e-015
rhumerus -48.9986 -2.26353 -84.4414
rradius 44.9517
rwrist 6.73426
rhand 1.40903 -39.4148
rfingers 7.12502
rthumb 26.9393 -67.5146
lclavicle -2.31025e-014 8.15017e-015
lhumerus -42.7105 3.91656 86.6901
lradius 41.5995
lwrist -8.21461
lhand -2.49877 -25.229
lfingers 7.12502
lthumb 23.1949 3.39432
rfemur 5.23723 3.39947 17.6197
rtibia 1.43125e-014
rfoot -17.096 -12.0456
rtoes -7.3082
lfemur -6.50019 -6.4272 -10.7301
ltibia 22.7294
lfoot -22.6972 12.8119
ltoes -55.1191
